<svg width="1669" height="1035" viewBox="0 0 1669 1035" fill="none" xmlns="http://www.w3.org/2000/svg">
<g clip-path="url(#clip0_2_6)">
<path opacity="0.05" fill-rule="evenodd" clip-rule="evenodd" d="M584 1035C658.356 881.066 799.022 783.732 1006 743C1316.47 681.901 1198.94 620.276 1351.47 497.975C1453.16 416.442 1559 371.116 1669 362V1035H584Z" fill="url(#paint0_linear_2_6)"/>
</g>
<g clip-path="url(#clip1_2_6)">
<path opacity="0.05" fill-rule="evenodd" clip-rule="evenodd" d="M584 0C543.978 82.8 468.264 135.154 356.859 157.064C189.751 189.928 253.009 223.076 170.91 288.86C116.177 332.716 59.207 357.096 0 362V0L584 0Z" fill="url(#paint1_linear_2_6)"/>
</g>
<defs>
<linearGradient id="paint0_linear_2_6" x1="1669" y1="827.965" x2="869.409" y2="300.412" gradientUnits="userSpaceOnUse">
<stop stop-color="#8A4389" stop-opacity="0"/>
<stop offset="1" stop-color="#512051"/>
</linearGradient>
<linearGradient id="paint1_linear_2_6" x1="1.5387e-05" y1="111.453" x2="430.387" y2="395.226" gradientUnits="userSpaceOnUse">
<stop stop-color="#8A4389" stop-opacity="0"/>
<stop offset="1" stop-color="#512051"/>
</linearGradient>
<clipPath id="clip0_2_6">
<rect width="1085" height="673" fill="white" transform="translate(584 362)"/>
</clipPath>
<clipPath id="clip1_2_6">
<rect width="584" height="362" fill="white"/>
</clipPath>
</defs>
</svg>
