<svg width="375" height="735" viewBox="0 0 375 735" fill="none" xmlns="http://www.w3.org/2000/svg">
<g clip-path="url(#clip0_9_6)">
<path opacity="0.05" fill-rule="evenodd" clip-rule="evenodd" d="M-355 735C-280.644 581.066 -139.978 483.732 67 443C377.466 381.901 259.94 320.276 412.47 197.975C514.157 116.442 620 71.116 730 62V735H-355Z" fill="url(#paint0_linear_9_6)"/>
</g>
<g clip-path="url(#clip1_9_6)">
<path opacity="0.05" fill-rule="evenodd" clip-rule="evenodd" d="M374 0C348.37 53.065 299.882 86.618 228.536 100.66C121.518 121.722 162.03 142.966 109.453 185.126C74.4 213.233 37.917 228.857 0 232V0L374 0Z" fill="url(#paint1_linear_9_6)"/>
</g>
<defs>
<linearGradient id="paint0_linear_9_6" x1="730" y1="527.965" x2="-69.5908" y2="0.412407" gradientUnits="userSpaceOnUse">
<stop stop-color="#8A4389" stop-opacity="0"/>
<stop offset="1" stop-color="#512051"/>
</linearGradient>
<linearGradient id="paint1_linear_9_6" x1="1.07734e-05" y1="71.3632" x2="275.619" y2="253.222" gradientUnits="userSpaceOnUse">
<stop stop-color="#8A4389" stop-opacity="0"/>
<stop offset="1" stop-color="#512051"/>
</linearGradient>
<clipPath id="clip0_9_6">
<rect width="375" height="503" fill="white" transform="translate(0 232)"/>
</clipPath>
<clipPath id="clip1_9_6">
<rect width="374" height="232" fill="white"/>
</clipPath>
</defs>
</svg>
