<svg width="124" height="16" viewBox="0 0 124 16" fill="none" xmlns="http://www.w3.org/2000/svg">
<g clip-path="url(#clip0_1_8)">
<path d="M16.539 6.097C16.5218 6.04428 16.4903 5.99742 16.4478 5.96173C16.4054 5.92603 16.3539 5.90291 16.299 5.895L10.939 5.116L8.542 0.259996C8.51747 0.210697 8.47967 0.169219 8.43285 0.140225C8.38604 0.111231 8.33207 0.095871 8.277 0.095871C8.22193 0.095871 8.16796 0.111231 8.12115 0.140225C8.07433 0.169219 8.03653 0.210697 8.012 0.259996L5.613 5.117L0.253 5.896C0.198449 5.90412 0.147239 5.92728 0.105108 5.96287C0.0629761 5.99847 0.0315873 6.04509 0.0144582 6.09751C-0.00267103 6.14994 -0.00486393 6.2061 0.00812514 6.2597C0.0211142 6.3133 0.0487721 6.36223 0.0880001 6.401L3.968 10.181L3.051 15.521C3.042 15.5754 3.04832 15.6313 3.06927 15.6823C3.09022 15.7333 3.12496 15.7775 3.1696 15.8099C3.21424 15.8422 3.26701 15.8616 3.32201 15.8657C3.37701 15.8697 3.43206 15.8584 3.481 15.833L8.276 13.313L13.07 15.833C13.119 15.8589 13.1743 15.8706 13.2295 15.8666C13.2848 15.8627 13.3379 15.8433 13.3827 15.8107C13.4275 15.7781 13.4623 15.7336 13.483 15.6822C13.5037 15.6308 13.5096 15.5746 13.5 15.52L12.584 10.182L16.464 6.4C16.544 6.32 16.574 6.203 16.539 6.096V6.097Z" fill="#EF9546"/>
</g>
<path d="M70.0929 6.097C70.0757 6.04428 70.0442 5.99742 70.0017 5.96173C69.9593 5.92603 69.9078 5.90291 69.8529 5.895L64.4929 5.116L62.0959 0.259996C62.0714 0.210697 62.0336 0.169219 61.9868 0.140225C61.9399 0.111231 61.886 0.095871 61.8309 0.095871C61.7758 0.095871 61.7219 0.111231 61.675 0.140225C61.6282 0.169219 61.5904 0.210697 61.5659 0.259996L59.1669 5.117L53.8069 5.896C53.7524 5.90412 53.7011 5.92728 53.659 5.96287C53.6169 5.99847 53.5855 6.04509 53.5684 6.09751C53.5512 6.14994 53.549 6.2061 53.562 6.2597C53.575 6.3133 53.6027 6.36223 53.6419 6.401L57.5219 10.181L56.6049 15.521C56.5959 15.5754 56.6022 15.6313 56.6232 15.6823C56.6441 15.7333 56.6789 15.7775 56.7235 15.8099C56.7681 15.8422 56.8209 15.8616 56.8759 15.8657C56.9309 15.8697 56.986 15.8584 57.0349 15.833L61.8299 13.313L66.6239 15.833C66.6729 15.8589 66.7282 15.8706 66.7834 15.8666C66.8387 15.8627 66.8918 15.8433 66.9366 15.8107C66.9814 15.7781 67.0162 15.7336 67.0369 15.6822C67.0576 15.6308 67.0635 15.5746 67.0539 15.52L66.1379 10.182L70.0179 6.4C70.0979 6.32 70.1279 6.203 70.0929 6.096V6.097Z" fill="#EF9546"/>
<path d="M43.5392 6.00113C43.5221 5.94841 43.4905 5.90155 43.4481 5.86585C43.4057 5.83016 43.3541 5.80704 43.2992 5.79913L37.9392 5.02013L35.5422 0.164125C35.5177 0.114826 35.4799 0.0733484 35.4331 0.0443544C35.3863 0.0153604 35.3323 0 35.2772 0C35.2222 0 35.1682 0.0153604 35.1214 0.0443544C35.0746 0.0733484 35.0368 0.114826 35.0122 0.164125L32.6132 5.02113L27.2532 5.80013C27.1987 5.80825 27.1475 5.83141 27.1053 5.867C27.0632 5.90259 27.0318 5.94922 27.0147 6.00164C26.9976 6.05407 26.9954 6.11023 27.0084 6.16383C27.0213 6.21743 27.049 6.26636 27.0882 6.30513L30.9682 10.0851L30.0512 15.4251C30.0422 15.4795 30.0486 15.5354 30.0695 15.5864C30.0904 15.6374 30.1252 15.6816 30.1698 15.714C30.2145 15.7464 30.2672 15.7657 30.3222 15.7698C30.3772 15.7739 30.4323 15.7626 30.4812 15.7371L35.2762 13.2171L40.0702 15.7371C40.1192 15.7631 40.1745 15.7747 40.2298 15.7708C40.2851 15.7668 40.3381 15.7475 40.3829 15.7148C40.4277 15.6822 40.4625 15.6377 40.4832 15.5863C40.504 15.5349 40.5099 15.4787 40.5002 15.4241L39.5842 10.0861L43.4642 6.30413C43.5442 6.22413 43.5742 6.10713 43.5392 6.00013V6.00113Z" fill="#EF9546"/>
<path d="M96.6466 6.00113C96.6294 5.94841 96.5978 5.90155 96.5554 5.86585C96.513 5.83016 96.4614 5.80704 96.4066 5.79913L91.0466 5.02013L88.6496 0.164125C88.625 0.114826 88.5872 0.0733484 88.5404 0.0443544C88.4936 0.0153604 88.4396 0 88.3846 0C88.3295 0 88.2755 0.0153604 88.2287 0.0443544C88.1819 0.0733484 88.1441 0.114826 88.1196 0.164125L85.7206 5.02113L80.3606 5.80013C80.306 5.80825 80.2548 5.83141 80.2127 5.867C80.1706 5.90259 80.1392 5.94922 80.122 6.00164C80.1049 6.05407 80.1027 6.11023 80.1157 6.16383C80.1287 6.21743 80.1563 6.26636 80.1956 6.30513L84.0756 10.0851L83.1586 15.4251C83.1496 15.4795 83.1559 15.5354 83.1768 15.5864C83.1978 15.6374 83.2325 15.6816 83.2772 15.714C83.3218 15.7464 83.3746 15.7657 83.4296 15.7698C83.4846 15.7739 83.5396 15.7626 83.5886 15.7371L88.3836 13.2171L93.1776 15.7371C93.2266 15.7631 93.2818 15.7747 93.3371 15.7708C93.3924 15.7668 93.4455 15.7475 93.4903 15.7148C93.5351 15.6822 93.5698 15.6377 93.5906 15.5863C93.6113 15.5349 93.6172 15.4787 93.6076 15.4241L92.6916 10.0861L96.5716 6.30413C96.6516 6.22413 96.6816 6.10713 96.6466 6.00013V6.00113Z" fill="#EF9546"/>
<path d="M123.2 6.00113C123.183 5.94841 123.152 5.90155 123.109 5.86585C123.067 5.83016 123.015 5.80704 122.96 5.79913L117.6 5.02013L115.203 0.164125C115.179 0.114826 115.141 0.0733484 115.094 0.0443544C115.047 0.0153604 114.993 0 114.938 0C114.883 0 114.829 0.0153604 114.782 0.0443544C114.736 0.0733484 114.698 0.114826 114.673 0.164125L112.274 5.02113L106.914 5.80013C106.86 5.80825 106.808 5.83141 106.766 5.867C106.724 5.90259 106.693 5.94922 106.676 6.00164C106.659 6.05407 106.656 6.11023 106.669 6.16383C106.682 6.21743 106.71 6.26636 106.749 6.30513L110.629 10.0851L109.712 15.4251C109.703 15.4795 109.71 15.5354 109.731 15.5864C109.751 15.6374 109.786 15.6816 109.831 15.714C109.875 15.7464 109.928 15.7657 109.983 15.7698C110.038 15.7739 110.093 15.7626 110.142 15.7371L114.937 13.2171L119.731 15.7371C119.78 15.7631 119.836 15.7747 119.891 15.7708C119.946 15.7668 119.999 15.7475 120.044 15.7148C120.089 15.6822 120.124 15.6377 120.144 15.5863C120.165 15.5349 120.171 15.4787 120.161 15.4241L119.245 10.0861L123.125 6.30413C123.205 6.22413 123.235 6.10713 123.2 6.00013V6.00113Z" fill="#EF9546"/>
<defs>
<clipPath id="clip0_1_8">
<rect width="17" height="16" fill="white"/>
</clipPath>
</defs>
</svg>
